<svg width="290" height="76" viewBox="0 0 290 76" fill="none" xmlns="http://www.w3.org/2000/svg">
<g clip-path="url(#clip0_363_397)">
<path d="M38.6441 0C31.0011 -8.81599e-08 23.5296 2.19226 17.1746 6.29956C10.8196 10.4069 5.86651 16.2447 2.94162 23.0748C0.0167452 29.9051 -0.748537 37.4208 0.742551 44.6717C2.23364 51.9225 5.91413 58.5829 11.3186 63.8106C16.7231 69.0381 23.6087 72.5982 31.105 74.0405C38.6012 75.4827 46.3712 74.7425 53.4325 71.9134C60.4938 69.0842 66.5292 64.2932 70.7755 58.1462C75.0217 51.9992 77.2882 44.7723 77.2882 37.3794H57.9661C57.9661 41.0759 56.8329 44.6892 54.7097 47.7628C52.5866 50.8363 49.5689 53.2318 46.0383 54.6463C42.5077 56.061 38.6227 56.431 34.8746 55.7099C31.1264 54.9887 27.6836 53.2088 24.9813 50.595C22.2791 47.9812 20.4389 44.651 19.6933 41.0255C18.9478 37.4001 19.3304 33.6422 20.7928 30.2271C22.2553 26.8121 24.7318 23.8931 27.9093 21.8395C31.0869 19.7858 34.8225 18.6897 38.6441 18.6897V0Z" fill="#A0AEC0"/>
<path d="M38.6441 0C33.5693 -5.8536e-08 28.5441 0.966846 23.8556 2.84534C19.1671 4.72382 14.907 7.47717 11.3186 10.9481C7.73015 14.4191 4.88365 18.5398 2.94161 23.0749C0.999557 27.61 -7.66275e-07 32.4706 0 37.3794H19.322C19.322 34.925 19.8219 32.4947 20.7928 30.2271C21.7638 27.9595 23.1871 25.8992 24.9813 24.1638C26.7755 22.4283 28.9055 21.0516 31.2498 20.1123C33.5941 19.1731 36.1066 18.6897 38.6441 18.6897V0Z" fill="#4299E1"/>
<path d="M38.6442 49.0599C45.3137 49.0599 50.7204 43.8301 50.7204 37.3788C50.7204 30.9275 45.3137 25.6978 38.6442 25.6978C31.9746 25.6978 26.5679 30.9275 26.5679 37.3788C26.5679 43.8301 31.9746 49.0599 38.6442 49.0599Z" fill="#4299E1"/>
<path d="M50.7204 37.3788C50.7204 35.8449 50.4081 34.3259 49.8012 32.9087C49.1943 31.4914 48.3048 30.2038 47.1833 29.1191C46.062 28.0344 44.7307 27.174 43.2655 26.587C41.8004 26 40.2301 25.6978 38.6442 25.6978C37.0582 25.6978 35.4879 26 34.0228 26.587C32.5576 27.174 31.2263 28.0344 30.105 29.1191C28.9835 30.2038 28.094 31.4914 27.4872 32.9087C26.8803 34.3259 26.5679 35.8449 26.5679 37.3788H38.6442H50.7204Z" fill="#4299E1"/>
</g>
<path d="M100.897 31.6886C100.723 30.1439 100.005 28.9473 98.7435 28.0988C97.4817 27.2395 95.8935 26.8098 93.979 26.8098C92.6083 26.8098 91.4226 27.0273 90.4219 27.4625C89.4211 27.8867 88.6433 28.4741 88.0885 29.2247C87.5446 29.9644 87.2727 30.8074 87.2727 31.7538C87.2727 32.5479 87.4576 33.2332 87.8275 33.8098C88.2082 34.3863 88.7031 34.8704 89.3123 35.262C89.9324 35.6427 90.5959 35.9636 91.303 36.2247C92.01 36.4749 92.6899 36.6815 93.3426 36.8447L96.606 37.6932C97.672 37.9543 98.7653 38.3078 99.8857 38.7538C101.006 39.1998 102.045 39.7872 103.002 40.516C103.959 41.2448 104.732 42.1477 105.319 43.2246C105.918 44.3016 106.217 45.5906 106.217 47.0918C106.217 48.9845 105.727 50.6652 104.748 52.1337C103.78 53.6022 102.371 54.7607 100.522 55.6092C98.6837 56.4577 96.4591 56.8819 93.8484 56.8819C91.3465 56.8819 89.1818 56.4849 87.3543 55.6908C85.5268 54.8967 84.0963 53.7708 83.0629 52.3132C82.0295 50.8447 81.4584 49.1042 81.3496 47.0918H86.4079C86.5058 48.2992 86.8974 49.3054 87.5827 50.1104C88.2789 50.9045 89.1655 51.4973 90.2424 51.8889C91.3302 52.2697 92.5213 52.46 93.8158 52.46C95.2408 52.46 96.5081 52.237 97.6176 51.791C98.7381 51.3342 99.6192 50.7032 100.261 49.8983C100.903 49.0824 101.224 48.1306 101.224 47.0428C101.224 46.0529 100.941 45.2425 100.375 44.6116C99.8204 43.9807 99.0644 43.4585 98.1071 43.0452C97.1608 42.6318 96.0893 42.2674 94.8927 41.9519L90.944 40.875C88.268 40.1462 86.1468 39.0747 84.5804 37.6606C83.0248 36.2464 82.2471 34.3754 82.2471 32.0475C82.2471 30.1221 82.7692 28.4415 83.8135 27.0056C84.8578 25.5697 86.2719 24.4547 88.0559 23.6606C89.8399 22.8556 91.8523 22.4532 94.0932 22.4532C96.3558 22.4532 98.3519 22.8502 100.082 23.6443C101.822 24.4384 103.193 25.5316 104.193 26.924C105.194 28.3055 105.716 29.8937 105.76 31.6886H100.897ZM122.407 56.833C119.981 56.833 117.893 56.2836 116.141 55.185C114.401 54.0754 113.063 52.5471 112.127 50.5999C111.192 48.6527 110.724 46.4228 110.724 43.9099C110.724 41.3645 111.203 39.1182 112.16 37.171C113.117 35.213 114.466 33.6847 116.207 32.586C117.947 31.4873 119.998 30.938 122.358 30.938C124.262 30.938 125.959 31.2915 127.449 31.9986C128.939 32.6948 130.141 33.6738 131.055 34.9356C131.98 36.1975 132.529 37.6714 132.703 39.3575H127.955C127.694 38.1827 127.096 37.171 126.16 36.3226C125.235 35.4741 123.995 35.0498 122.44 35.0498C121.08 35.0498 119.889 35.4088 118.866 36.1268C117.855 36.8338 117.066 37.8455 116.5 39.1617C115.935 40.4671 115.652 42.0117 115.652 43.7957C115.652 45.6232 115.929 47.2005 116.484 48.5276C117.039 49.8548 117.822 50.8827 118.834 51.6115C119.856 52.3404 121.058 52.7048 122.44 52.7048C123.364 52.7048 124.202 52.5362 124.953 52.199C125.714 51.8509 126.35 51.3559 126.862 50.7141C127.384 50.0723 127.748 49.3 127.955 48.3971H132.703C132.529 50.0179 132.002 51.4647 131.12 52.7374C130.239 54.0101 129.059 55.0109 127.58 55.7397C126.111 56.4686 124.387 56.833 122.407 56.833ZM137.921 56.3271V31.2643H142.799V56.3271H137.921ZM140.384 27.3972C139.536 27.3972 138.807 27.1144 138.198 26.5487C137.6 25.9722 137.3 25.2869 137.3 24.4928C137.3 23.6878 137.6 23.0025 138.198 22.4368C138.807 21.8603 139.536 21.572 140.384 21.572C141.233 21.572 141.956 21.8603 142.555 22.4368C143.164 23.0025 143.468 23.6878 143.468 24.4928C143.468 25.2869 143.164 25.9722 142.555 26.5487C141.956 27.1144 141.233 27.3972 140.384 27.3972Z" fill="#A0AEC0"/>
<path d="M202.503 45.2024V29.5021H207.742V56.3271H202.608V51.6817H202.328C201.711 53.1137 200.722 54.3071 199.359 55.2618C198.009 56.2049 196.326 56.6764 194.312 56.6764C192.589 56.6764 191.064 56.298 189.737 55.5413C188.421 54.7728 187.385 53.6377 186.628 52.1357C185.883 50.6338 185.51 48.7768 185.51 46.5647V29.5021H190.732V45.9359C190.732 47.7639 191.239 49.2192 192.251 50.302C193.264 51.3848 194.58 51.9262 196.198 51.9262C197.176 51.9262 198.149 51.6817 199.115 51.1927C200.093 50.7037 200.902 49.9644 201.542 48.9747C202.194 47.9851 202.515 46.7276 202.503 45.2024ZM226.32 56.8685C223.677 56.8685 221.401 56.3039 219.491 55.1745C217.594 54.0335 216.127 52.4326 215.09 50.3719C214.066 48.2994 213.553 45.8719 213.553 43.0893C213.553 40.3416 214.066 37.9199 215.09 35.8242C216.127 33.7284 217.57 32.0926 219.421 30.9167C221.284 29.7408 223.462 29.1528 225.953 29.1528C227.467 29.1528 228.934 29.4031 230.354 29.9038C231.774 30.4044 233.049 31.1903 234.179 32.2615C235.308 33.3326 236.199 34.7239 236.851 36.4354C237.503 38.1353 237.829 40.2019 237.829 42.6352V44.4864H216.505V40.5744H232.712C232.712 39.2006 232.432 37.9839 231.873 36.9244C231.315 35.8533 230.529 35.0092 229.516 34.3921C228.514 33.775 227.339 33.4665 225.988 33.4665C224.521 33.4665 223.24 33.8274 222.146 34.5493C221.063 35.2595 220.225 36.1909 219.631 37.3435C219.049 38.4845 218.758 39.7245 218.758 41.0634V44.1197C218.758 45.9127 219.072 47.4379 219.701 48.6953C220.341 49.9527 221.232 50.9132 222.373 51.5769C223.514 52.2289 224.847 52.5549 226.372 52.5549C227.362 52.5549 228.264 52.4152 229.079 52.1357C229.894 51.8447 230.599 51.4139 231.192 50.8434C231.786 50.2729 232.24 49.5685 232.555 48.7302L237.497 49.6209C237.101 51.0762 236.391 52.3511 235.366 53.4456C234.353 54.5283 233.078 55.3724 231.542 55.9779C230.016 56.5716 228.276 56.8685 226.32 56.8685ZM263.724 36.0512L258.991 36.8895C258.793 36.284 258.479 35.7077 258.048 35.1605C257.629 34.6133 257.058 34.1651 256.336 33.8158C255.615 33.4665 254.712 33.2918 253.629 33.2918C252.151 33.2918 250.917 33.6237 249.927 34.2873C248.937 34.9393 248.443 35.7834 248.443 36.8196C248.443 37.7161 248.774 38.438 249.438 38.9852C250.102 39.5324 251.173 39.9806 252.651 40.3299L256.913 41.3079C259.381 41.8784 261.221 42.7575 262.431 43.945C263.642 45.1326 264.248 46.6753 264.248 48.573C264.248 50.1797 263.782 51.6118 262.851 52.8692C261.931 54.115 260.644 55.093 258.991 55.8032C257.349 56.5134 255.446 56.8685 253.28 56.8685C250.276 56.8685 247.826 56.2282 245.928 54.9475C244.03 53.6551 242.866 51.8214 242.435 49.4462L247.482 48.6778C247.796 49.9935 248.443 50.9889 249.421 51.6642C250.399 52.3278 251.673 52.6597 253.245 52.6597C254.957 52.6597 256.325 52.3046 257.349 51.5943C258.374 50.8725 258.886 49.9935 258.886 48.9572C258.886 48.119 258.572 47.4146 257.943 46.8441C257.326 46.2736 256.377 45.8428 255.096 45.5517L250.556 44.5563C248.053 43.9858 246.201 43.0776 245.002 41.8318C243.815 40.5861 243.221 39.0085 243.221 37.099C243.221 35.5156 243.663 34.1301 244.548 32.9426C245.433 31.755 246.655 30.8294 248.216 30.1657C249.776 29.4905 251.563 29.1528 253.577 29.1528C256.476 29.1528 258.758 29.7815 260.423 31.039C262.088 32.2847 263.188 33.9555 263.724 36.0512ZM282.511 29.5021V33.6935H267.858V29.5021H282.511ZM271.788 23.0753H277.01V48.4508C277.01 49.4637 277.161 50.2263 277.464 50.7386C277.766 51.2392 278.157 51.5827 278.634 51.769C279.123 51.9436 279.653 52.031 280.223 52.031C280.642 52.031 281.009 52.0018 281.323 51.9436C281.638 51.8854 281.882 51.8388 282.057 51.8039L283 56.1176C282.697 56.234 282.266 56.3504 281.708 56.4669C281.149 56.5949 280.45 56.6648 279.612 56.6764C278.238 56.6997 276.957 56.4552 275.77 55.9429C274.582 55.4307 273.622 54.6389 272.888 53.5678C272.155 52.4967 271.788 51.1519 271.788 49.5336V23.0753Z" fill="#4299E1"/>
<g clip-path="url(#clip1_363_397)">
<path d="M146.697 32.8264C146.701 32.8046 146.705 32.7823 146.709 32.7598C146.761 32.4796 146.823 32.2048 146.895 31.9295C146.927 31.807 146.952 31.6855 146.975 31.5611C146.982 31.5223 146.989 31.4837 146.997 31.4436C147.016 31.325 147.028 31.206 147.04 31.086C147.065 30.8475 147.104 30.6127 147.148 30.3771C147.16 30.3092 147.173 30.2416 147.185 30.1736C147.193 30.1299 147.201 30.0864 147.209 30.0427C147.216 30.0039 147.223 29.965 147.231 29.9252C147.25 29.8413 147.272 29.7772 147.311 29.701C147.338 29.6131 147.364 29.5254 147.39 29.437C147.504 29.0569 147.646 28.6928 147.817 28.3337C147.856 28.2519 147.889 28.1693 147.922 28.0856C147.971 27.9622 148.029 27.8494 148.099 27.7359C148.136 27.6671 148.166 27.5988 148.196 27.5266C148.258 27.3816 148.332 27.2464 148.411 27.1097C148.506 26.9445 148.599 26.7789 148.687 26.6097C148.759 26.4734 148.837 26.3473 148.929 26.223C148.978 26.1544 149.023 26.0843 149.067 26.0128C149.162 25.8645 149.269 25.7276 149.379 25.5893C149.456 25.4874 149.524 25.3814 149.592 25.2734C149.677 25.1448 149.774 25.0255 149.87 24.9047C149.894 24.8733 149.894 24.8733 149.918 24.8413C150.066 24.648 150.221 24.4614 150.38 24.277C150.406 24.2476 150.431 24.2181 150.457 24.1881C150.617 24.0044 150.779 23.8279 150.955 23.6594C151.014 23.6019 151.063 23.5437 151.111 23.4783C151.133 23.4824 151.156 23.4865 151.179 23.4907C151.19 23.4699 151.203 23.4489 151.215 23.4276C151.289 23.3218 151.376 23.2346 151.469 23.1454C151.486 23.1282 151.503 23.1115 151.521 23.0938C151.566 23.0513 151.612 23.0112 151.659 22.9711C151.681 22.9752 151.703 22.9793 151.726 22.9835C151.737 22.9632 151.748 22.943 151.759 22.9221C151.847 22.8008 151.953 22.698 152.075 22.6087C152.097 22.6128 152.12 22.6169 152.143 22.6211C152.154 22.6049 152.165 22.5887 152.177 22.572C152.25 22.4844 152.333 22.4159 152.421 22.343C152.47 22.3024 152.47 22.3024 152.52 22.2606C152.548 22.2404 152.576 22.2202 152.605 22.1995C152.627 22.2036 152.65 22.2077 152.673 22.2119C152.691 22.1856 152.691 22.1856 152.71 22.1587C152.768 22.0899 152.822 22.0503 152.899 22.0022C152.986 21.9473 153.061 21.8935 153.139 21.8268C153.162 21.8081 153.185 21.7893 153.209 21.77C153.231 21.7741 153.253 21.7782 153.276 21.7825C153.287 21.7656 153.299 21.7488 153.311 21.7314C153.381 21.6491 153.458 21.597 153.549 21.537C153.58 21.5158 153.612 21.4947 153.645 21.4729C153.727 21.4262 153.727 21.4262 153.794 21.4386C153.798 21.417 153.802 21.3955 153.806 21.3733C153.872 21.3305 153.872 21.3305 153.956 21.2846C154.073 21.2206 154.073 21.2206 154.185 21.1483C154.239 21.115 154.239 21.115 154.306 21.1274C154.31 21.1058 154.314 21.0843 154.318 21.0621C154.385 21.0216 154.453 20.9839 154.523 20.9477C154.561 20.9279 154.599 20.9078 154.637 20.8876C154.723 20.8467 154.799 20.8166 154.892 20.7959C154.896 20.7743 154.9 20.7528 154.904 20.7306C154.937 20.7367 154.971 20.7429 155.006 20.7492C155.023 20.7189 155.04 20.6886 155.057 20.6574C155.118 20.622 155.118 20.622 155.19 20.5912C155.225 20.5754 155.225 20.5754 155.261 20.5594C155.324 20.5376 155.324 20.5376 155.392 20.55C155.396 20.5284 155.4 20.5069 155.404 20.4847C155.46 20.4534 155.46 20.4534 155.536 20.421C155.563 20.4094 155.59 20.3978 155.618 20.3861C155.646 20.3741 155.675 20.3622 155.704 20.35C155.733 20.3376 155.761 20.3256 155.79 20.313C156.002 20.223 156.002 20.223 156.079 20.2371C156.083 20.2156 156.087 20.194 156.091 20.1718C156.127 20.1601 156.163 20.1485 156.2 20.1367C156.337 20.0907 156.472 20.0387 156.607 19.9858C156.866 19.8838 157.123 19.7874 157.395 19.7191C157.488 19.6946 157.58 19.6682 157.671 19.6394C157.7 19.6305 157.728 19.6218 157.757 19.6126C157.814 19.595 157.87 19.5772 157.926 19.5594C157.951 19.5513 157.977 19.5436 158.004 19.5352C158.026 19.5279 158.049 19.5207 158.073 19.5131C158.139 19.5006 158.139 19.5006 158.275 19.5255C158.279 19.5039 158.282 19.4824 158.287 19.4601C158.684 19.3638 159.082 19.2829 159.486 19.2137C159.581 19.1963 159.673 19.1761 159.767 19.1535C159.907 19.1201 160.046 19.1053 160.19 19.0929C160.311 19.0797 160.429 19.0555 160.549 19.0297C160.798 18.9893 161.058 18.993 161.31 18.9846C161.416 18.9806 161.515 18.9755 161.618 18.9557C161.735 18.9341 161.847 18.9357 161.965 18.9358C162.099 18.9361 162.23 18.9347 162.363 18.9223C162.465 18.9137 162.552 18.9151 162.654 18.927C162.758 18.9375 162.84 18.9402 162.944 18.9295C163.107 18.9174 163.258 18.937 163.419 18.9574C163.515 18.9703 163.515 18.9703 163.586 18.9626C163.685 18.9592 163.776 18.9738 163.874 18.9891C163.935 18.9986 163.935 18.9986 163.997 19.0079C164.083 19.0212 164.168 19.0345 164.253 19.0478C164.314 19.0569 164.314 19.0569 164.376 19.0662C164.432 19.0751 164.432 19.075 164.489 19.0838C164.586 19.0988 164.586 19.0988 164.691 19.0806C164.745 19.0874 164.798 19.0959 164.851 19.1056C164.9 19.1145 164.9 19.1145 164.949 19.1232C164.984 19.1299 165.019 19.1363 165.055 19.1429C165.091 19.1495 165.126 19.156 165.163 19.1627C165.239 19.1766 165.314 19.1905 165.39 19.2043C165.506 19.2259 165.622 19.2468 165.738 19.2681C165.812 19.2815 165.885 19.295 165.958 19.3084C166.011 19.318 166.011 19.318 166.064 19.3274C166.096 19.3337 166.128 19.3395 166.162 19.3456C166.204 19.3534 166.204 19.3534 166.248 19.3617C166.316 19.3783 166.316 19.3783 166.378 19.4234C166.44 19.4394 166.502 19.4539 166.565 19.467C166.602 19.4752 166.639 19.4833 166.677 19.4917C166.717 19.5 166.756 19.5085 166.796 19.5168C166.873 19.5334 166.951 19.5499 167.028 19.5667C167.062 19.574 167.096 19.5812 167.131 19.5887C167.219 19.6111 167.219 19.6111 167.314 19.6624C167.435 19.7 167.556 19.7359 167.677 19.771C167.871 19.8285 167.871 19.8285 167.94 19.8782C167.992 19.8932 168.045 19.9069 168.098 19.92C168.703 20.081 168.703 20.081 168.79 20.2027C168.839 20.2234 168.888 20.2428 168.937 20.2613C169.053 20.3054 169.168 20.3498 169.282 20.396C169.318 20.4107 169.318 20.4107 169.354 20.4255C169.41 20.4511 169.41 20.4511 169.438 20.49C169.502 20.5163 169.566 20.5423 169.631 20.5683C169.758 20.6233 169.883 20.6833 170.008 20.7443C170.031 20.7556 170.054 20.7665 170.078 20.778C170.224 20.8504 170.358 20.9323 170.495 21.0212C170.563 21.0566 170.632 21.0912 170.701 21.1244C170.845 21.196 170.973 21.2703 171.098 21.3679C171.168 21.4198 171.241 21.4642 171.316 21.509C171.413 21.5676 171.506 21.6275 171.597 21.6954C171.682 21.7597 171.77 21.8162 171.862 21.8706C172.216 22.0843 172.54 22.343 172.856 22.6055C172.947 22.6801 173.038 22.7526 173.131 22.8246C173.244 22.9123 173.355 23.0013 173.465 23.0923C173.503 23.1235 173.503 23.1235 173.541 23.1555C173.559 23.1729 173.577 23.1907 173.595 23.2088C173.591 23.2304 173.587 23.2519 173.583 23.2741C173.601 23.2819 173.62 23.2894 173.64 23.2974C173.713 23.332 173.772 23.3725 173.836 23.4217C173.832 23.4432 173.828 23.4648 173.824 23.487C173.86 23.5096 173.86 23.5096 173.898 23.5324C173.981 23.5833 173.981 23.5833 174.043 23.6284C174.039 23.6499 174.035 23.6715 174.031 23.6937C174.064 23.7123 174.064 23.7123 174.098 23.7313C174.2 23.798 174.283 23.8705 174.367 23.9578C174.363 23.9794 174.359 24.0009 174.355 24.0231C174.39 24.0419 174.39 24.0419 174.425 24.0612C174.521 24.1254 174.587 24.1915 174.658 24.2811C174.654 24.3026 174.65 24.3242 174.646 24.3464C174.669 24.3583 174.691 24.3698 174.715 24.3822C174.823 24.4565 174.887 24.5397 174.966 24.6432C175.06 24.7739 175.06 24.7739 175.178 24.8825C175.174 24.9041 175.17 24.9256 175.166 24.9478C175.183 24.9595 175.201 24.9712 175.219 24.9833C175.479 25.1871 175.661 25.509 175.851 25.7735C175.891 25.8298 175.931 25.8861 175.972 25.9422C176.328 26.4391 176.328 26.4391 176.309 26.5409C176.332 26.545 176.354 26.5491 176.377 26.5533C176.458 26.6849 176.458 26.6849 176.443 26.7679C176.465 26.772 176.487 26.7761 176.51 26.7803C176.506 26.8018 176.502 26.8234 176.498 26.8456C176.521 26.8497 176.543 26.8538 176.566 26.858C176.675 27.0288 176.675 27.0288 176.66 27.1114C176.682 27.1155 176.704 27.1196 176.727 27.1238C176.722 27.1561 176.716 27.1884 176.709 27.2217C176.732 27.2258 176.754 27.2299 176.777 27.2341C176.818 27.2984 176.818 27.2984 176.86 27.3802C176.881 27.4205 176.881 27.4205 176.902 27.4615C176.933 27.5326 176.933 27.5326 176.921 27.5979C176.943 27.602 176.965 27.6061 176.988 27.6103C177.034 27.6935 177.075 27.776 177.115 27.8613C177.137 27.9083 177.16 27.9549 177.182 28.0019C177.198 28.0351 177.198 28.0351 177.214 28.0691C177.238 28.1187 177.264 28.1667 177.291 28.2148C177.321 28.2787 177.321 28.2787 177.303 28.3767C177.325 28.3807 177.348 28.3848 177.371 28.3891C177.411 28.4595 177.411 28.4595 177.45 28.5495C177.464 28.5789 177.477 28.6084 177.492 28.6387C177.52 28.7202 177.52 28.7202 177.502 28.8181C177.524 28.8222 177.547 28.8263 177.57 28.8305C177.582 28.8658 177.582 28.8658 177.594 28.9021C177.656 29.0836 177.72 29.2634 177.79 29.4426C177.858 29.6201 177.917 29.7986 177.971 29.9802C177.993 30.0562 178.016 30.1317 178.04 30.2073C178.191 30.6875 178.315 31.1715 178.405 31.6652C178.424 31.7679 178.445 31.8697 178.469 31.9715C178.513 32.1761 178.537 32.3822 178.561 32.5895C178.568 32.6431 178.575 32.6967 178.582 32.7503C178.626 33.0833 178.655 33.4131 178.667 33.7482C178.671 33.8783 178.683 34.0074 178.695 34.1372C178.719 34.4176 178.713 34.6982 178.708 34.9788C178.707 35.0013 178.707 35.0239 178.707 35.0471C178.702 35.3439 178.681 35.634 178.641 35.9279C178.627 36.0412 178.627 36.0412 178.628 36.1444C178.626 36.2666 178.61 36.3845 178.591 36.5049C178.588 36.5295 178.584 36.5542 178.58 36.5798C178.568 36.6606 178.556 36.741 178.543 36.8217C178.538 36.8496 178.534 36.8772 178.53 36.9057C178.407 37.6911 178.24 38.4563 177.991 39.2123C177.967 39.2839 177.944 39.3553 177.922 39.4273C177.766 39.9295 177.566 40.4268 177.319 40.8928C177.26 41.0053 177.207 41.1201 177.155 41.2357C176.87 41.8545 176.551 42.4747 176.136 43.021C176.078 43.0998 176.029 43.18 175.98 43.2649C175.857 43.4759 175.703 43.6646 175.55 43.8564C175.495 43.9266 175.441 43.998 175.387 44.0694C175.292 44.1921 175.189 44.3066 175.083 44.4205C175.013 44.4978 174.947 44.5775 174.881 44.6579C174.779 44.7813 174.672 44.8957 174.557 45.0072C174.455 45.1077 174.358 45.2118 174.26 45.3157C174.185 45.3916 174.104 45.4589 174.022 45.5278C173.987 45.5637 173.954 45.6006 173.923 45.6386C173.897 45.6693 173.871 45.7 173.844 45.7316C173.822 45.7275 173.8 45.7234 173.777 45.7192C173.766 45.7394 173.755 45.7597 173.743 45.7806C173.656 45.902 173.55 46.0047 173.428 46.0941C173.406 46.09 173.383 46.0859 173.36 46.0817C173.349 46.0978 173.337 46.1135 173.325 46.1302C173.255 46.2169 173.18 46.295 173.097 46.371C173.075 46.3669 173.053 46.3628 173.03 46.3586C172.993 46.4299 172.957 46.5013 172.92 46.5748C172.942 46.5789 172.965 46.583 172.988 46.5872C172.984 46.6087 172.98 46.6303 172.976 46.6525C173.007 46.6694 173.039 46.6863 173.071 46.7037C173.067 46.7253 173.063 46.7468 173.059 46.769C173.082 46.7731 173.104 46.7772 173.127 46.7814C173.123 46.803 173.119 46.8246 173.115 46.8468C173.147 46.8637 173.178 46.8806 173.211 46.898C173.207 46.9196 173.203 46.9411 173.199 46.9633C173.221 46.9674 173.243 46.9715 173.267 46.9757C173.313 47.0308 173.313 47.0308 173.35 47.0923C173.346 47.1138 173.342 47.1354 173.338 47.1576C173.37 47.1745 173.401 47.1914 173.434 47.2089C173.43 47.2304 173.426 47.252 173.422 47.2742C173.444 47.2783 173.467 47.2824 173.49 47.2866C173.486 47.3081 173.482 47.3297 173.478 47.3519C173.509 47.3688 173.541 47.3857 173.573 47.4031C173.569 47.4247 173.565 47.4462 173.561 47.4685C173.579 47.4802 173.597 47.4915 173.615 47.5033C173.697 47.5686 173.747 47.6371 173.807 47.7223C173.83 47.7559 173.854 47.7893 173.878 47.8237C173.903 47.8597 173.928 47.8961 173.954 47.9332C173.98 47.9704 174.007 48.008 174.033 48.0452C174.145 48.2035 174.256 48.3622 174.367 48.5212C174.436 48.6185 174.504 48.7157 174.573 48.8123C174.612 48.8674 174.65 48.9226 174.688 48.9779C174.712 49.0112 174.735 49.0442 174.759 49.0784C174.78 49.1078 174.801 49.1373 174.822 49.1674C174.878 49.236 174.878 49.236 174.956 49.2385C175.065 49.2116 175.149 49.149 175.239 49.0861C175.259 49.0723 175.279 49.0585 175.3 49.0445C175.366 49.0004 175.43 48.9559 175.495 48.9111C175.56 48.8672 175.624 48.823 175.689 48.7792C175.729 48.752 175.769 48.7246 175.809 48.6969C176.152 48.464 176.504 48.3662 176.926 48.4208C177.517 48.5372 177.859 49.0118 178.181 49.4644C178.215 49.5119 178.25 49.5597 178.284 49.6071C178.378 49.7374 178.471 49.8678 178.564 49.9983C178.666 50.1394 178.767 50.2801 178.868 50.4208C179.066 50.6961 179.264 50.9719 179.462 51.2477C179.622 51.4715 179.783 51.6956 179.944 51.9195C179.966 51.9514 179.989 51.9836 180.013 52.0163C180.06 52.0811 180.106 52.146 180.153 52.2109C180.589 52.8182 181.024 53.4256 181.46 54.0335C181.834 54.5549 182.208 55.076 182.582 55.5968C183.017 56.2022 183.451 56.8073 183.886 57.413C183.932 57.4775 183.978 57.5423 184.024 57.6068C184.047 57.6387 184.07 57.6702 184.094 57.7032C184.254 57.927 184.415 58.1505 184.575 58.3743C184.771 58.6467 184.967 58.9195 185.162 59.1922C185.262 59.3316 185.362 59.4707 185.462 59.6095C185.553 59.7369 185.644 59.8643 185.736 59.9917C185.769 60.038 185.802 60.0838 185.835 60.1297C186.101 60.4992 186.312 60.8195 186.234 61.2831C186.228 61.3128 186.223 61.3425 186.217 61.3732C186.213 61.4025 186.208 61.432 186.204 61.4625C186.165 61.6755 186.09 61.821 185.951 61.9887C185.936 62.0082 185.921 62.0277 185.906 62.0478C185.883 62.0437 185.861 62.0396 185.838 62.0354C185.825 62.0578 185.813 62.0801 185.8 62.1027C185.731 62.1991 185.662 62.249 185.563 62.3151C185.526 62.3398 185.489 62.3644 185.451 62.3901C185.41 62.4171 185.369 62.444 185.328 62.471C185.285 62.4995 185.242 62.5284 185.199 62.557C185.083 62.6349 184.966 62.7123 184.849 62.7898C184.726 62.871 184.604 62.9522 184.482 63.0334C184.277 63.1697 184.071 63.3058 183.866 63.442C183.628 63.5993 183.391 63.757 183.153 63.915C182.95 64.0505 182.746 64.186 182.542 64.3211C182.42 64.402 182.299 64.4827 182.177 64.5637C182.063 64.6399 181.948 64.7158 181.833 64.7913C181.791 64.8191 181.749 64.8471 181.707 64.8752C181.65 64.9134 181.593 64.9511 181.535 64.9888C181.503 65.01 181.471 65.0314 181.438 65.0534C181.357 65.096 181.357 65.096 181.256 65.0774C181.252 65.0989 181.248 65.1205 181.244 65.1427C180.986 65.2565 180.761 65.2356 180.49 65.1862C180.46 65.1813 180.429 65.1767 180.397 65.1716C179.93 65.088 179.675 64.7669 179.413 64.4061C179.366 64.3411 179.32 64.2756 179.273 64.2103C179.238 64.1628 179.204 64.1154 179.17 64.0676C179.076 63.9374 178.983 63.8072 178.889 63.6767C178.788 63.536 178.687 63.3953 178.586 63.2546C178.388 62.9794 178.19 62.7038 177.992 62.4283C177.831 62.2041 177.67 61.9803 177.509 61.7561C177.053 61.121 176.597 60.4857 176.141 59.8504C176.116 59.8162 176.092 59.7817 176.066 59.7466C176.042 59.7121 176.017 59.6779 175.992 59.6425C175.593 59.0869 175.194 58.5315 174.795 57.9761C174.385 57.4059 173.975 56.835 173.565 56.2642C173.335 55.944 173.105 55.6235 172.875 55.3035C172.679 55.031 172.483 54.7583 172.288 54.4855C172.188 54.3464 172.088 54.2073 171.988 54.0682C171.896 53.9411 171.805 53.8136 171.714 53.6859C171.681 53.64 171.648 53.5941 171.614 53.5482C171.323 53.1455 171.094 52.7479 171.168 52.2444C171.223 51.9915 171.345 51.7807 171.513 51.582C171.535 51.586 171.558 51.5901 171.581 51.5944C171.591 51.5733 171.602 51.552 171.613 51.5304C171.702 51.4111 171.813 51.3423 171.939 51.2614C171.975 51.2376 171.975 51.2376 172.011 51.2135C172.187 51.0979 172.187 51.0979 172.264 51.112C172.275 51.0949 172.287 51.0775 172.3 51.0595C172.364 50.9841 172.428 50.9376 172.515 50.888C172.537 50.8921 172.56 50.8962 172.583 50.9004C172.656 50.821 172.656 50.821 172.679 50.7192C172.66 50.6247 172.621 50.5705 172.563 50.4918C172.53 50.4467 172.53 50.4467 172.497 50.4004C172.473 50.3684 172.449 50.336 172.425 50.3029C172.401 50.2697 172.377 50.2363 172.352 50.202C172.275 50.0955 172.197 49.9894 172.119 49.8833C172.042 49.777 171.964 49.6703 171.886 49.5636C171.838 49.4974 171.79 49.4312 171.741 49.3649C171.719 49.3349 171.697 49.3053 171.675 49.2745C171.656 49.248 171.637 49.2216 171.617 49.1946C171.577 49.13 171.577 49.13 171.589 49.0647C171.557 49.0478 171.526 49.0309 171.493 49.0134C171.497 48.9919 171.501 48.9703 171.505 48.9481C171.483 48.944 171.461 48.9399 171.438 48.9357C171.442 48.9142 171.445 48.8926 171.45 48.8704C171.418 48.8535 171.386 48.8366 171.354 48.8191C171.358 48.7976 171.362 48.776 171.366 48.7538C171.344 48.7497 171.321 48.7456 171.298 48.7414C171.251 48.6866 171.251 48.6866 171.215 48.6249C171.218 48.6033 171.222 48.5818 171.226 48.5596C171.204 48.5555 171.182 48.5514 171.159 48.5472C171.112 48.4923 171.112 48.4923 171.075 48.4306C171.079 48.409 171.083 48.3875 171.087 48.3653C171.056 48.3484 171.024 48.3314 170.991 48.314C170.995 48.2925 170.999 48.2709 171.003 48.2487C170.981 48.2446 170.959 48.2405 170.936 48.2363C170.94 48.2148 170.944 48.1932 170.948 48.171C170.916 48.1541 170.885 48.1372 170.852 48.1197C170.856 48.0982 170.86 48.0766 170.864 48.0544C170.842 48.0503 170.819 48.0462 170.796 48.042C170.8 48.0205 170.804 47.9989 170.808 47.9767C170.726 47.9839 170.644 47.9912 170.559 47.9986C170.555 48.0202 170.551 48.0417 170.547 48.0639C170.488 48.0997 170.488 48.0997 170.408 48.1377C170.38 48.1513 170.351 48.1653 170.321 48.1795C170.291 48.1938 170.26 48.2081 170.229 48.223C170.199 48.2375 170.17 48.2516 170.139 48.2665C170.057 48.3056 169.975 48.3443 169.894 48.383C169.866 48.3969 169.839 48.4108 169.812 48.425C169.74 48.4561 169.74 48.4561 169.673 48.4437C169.669 48.4653 169.665 48.4868 169.661 48.509C169.582 48.5446 169.582 48.5446 169.476 48.5829C169.333 48.6364 169.193 48.6919 169.053 48.7542C168.552 48.9766 168.552 48.9766 168.35 48.9777C168.346 48.9993 168.342 49.0208 168.338 49.043C167.993 49.163 167.645 49.2678 167.292 49.362C167.204 49.3857 167.116 49.4108 167.028 49.4358C166.883 49.4759 166.738 49.5056 166.59 49.5321C166.488 49.5506 166.387 49.572 166.286 49.5933C166.087 49.6341 165.887 49.6656 165.685 49.6942C165.585 49.71 165.488 49.7282 165.389 49.7482C165.162 49.7917 164.933 49.8118 164.702 49.8327C164.618 49.8405 164.533 49.8484 164.449 49.8562C164.412 49.8596 164.375 49.863 164.337 49.8661C164.23 49.8771 164.122 49.8909 164.015 49.905C163.967 49.9077 163.92 49.9098 163.872 49.9105C163.738 49.9133 163.605 49.9183 163.471 49.9235C163.301 49.9301 163.131 49.9338 162.961 49.9336C162.883 49.9339 162.883 49.9339 162.782 49.9492C162.676 49.9401 162.57 49.9274 162.463 49.9151C162.372 49.9024 162.372 49.9024 162.296 49.9276C162.199 49.9224 162.103 49.9159 162.006 49.9083C161.954 49.9044 161.901 49.9001 161.848 49.8962C161.825 49.8943 161.801 49.8927 161.777 49.8907C161.709 49.8862 161.709 49.8862 161.642 49.8928C161.546 49.8963 161.459 49.8822 161.364 49.8676C161.324 49.8617 161.285 49.8558 161.244 49.8497C161.203 49.8432 161.162 49.837 161.119 49.8303C160.796 49.7794 160.796 49.7794 160.47 49.7461C160.277 49.7312 160.088 49.697 159.897 49.6614C159.863 49.6551 159.829 49.6492 159.794 49.6428C159.599 49.6067 159.41 49.562 159.219 49.5075C158.996 49.4474 158.769 49.4044 158.542 49.3576C158.331 49.3128 158.15 49.2587 157.956 49.1664C157.88 49.1444 157.803 49.124 157.726 49.1055C157.528 49.0577 157.528 49.0577 157.46 49.0081C157.396 48.9903 157.332 48.9739 157.268 48.9581C157.12 48.9198 157.001 48.8741 156.868 48.7985C156.821 48.7827 156.773 48.7676 156.726 48.7535C156.603 48.7162 156.603 48.7162 156.575 48.6774C156.522 48.6565 156.469 48.6373 156.415 48.6187C156.253 48.56 156.099 48.4916 155.944 48.4169C155.872 48.3831 155.8 48.3527 155.726 48.3236C155.251 48.1304 154.759 47.8857 154.34 47.5957C154.238 47.5291 154.133 47.4696 154.027 47.4091C153.741 47.2449 153.468 47.062 153.195 46.8771C153.199 46.8555 153.203 46.834 153.207 46.8117C153.183 46.8032 153.158 46.7944 153.134 46.7854C152.808 46.6499 152.526 46.3583 152.255 46.1402C152.14 46.0483 152.025 45.9571 151.91 45.8655C151.914 45.844 151.918 45.8224 151.922 45.8002C151.904 45.7931 151.885 45.7856 151.866 45.778C151.786 45.7394 151.729 45.695 151.664 45.6367C151.642 45.6183 151.621 45.5998 151.599 45.581C151.583 45.564 151.568 45.5473 151.552 45.5299C151.556 45.5083 151.56 45.4868 151.564 45.4646C151.547 45.4591 151.529 45.4535 151.512 45.4479C151.4 45.389 151.322 45.3031 151.235 45.2147C151.217 45.1959 151.199 45.1773 151.18 45.158C151.058 45.0344 150.939 44.9084 150.823 44.7797C150.717 44.6658 150.604 44.5575 150.493 44.4484C150.463 44.4145 150.463 44.4145 150.433 44.3799C150.437 44.3583 150.44 44.3368 150.445 44.3146C150.428 44.3045 150.412 44.294 150.395 44.2836C150.291 44.2007 150.211 44.1017 150.128 44.0004C150.109 43.9777 150.09 43.955 150.071 43.9319C149.862 43.6764 149.669 43.4115 149.478 43.1443C149.417 43.0599 149.357 42.9763 149.296 42.8922C149.257 42.8385 149.218 42.7845 149.18 42.7309C149.161 42.706 149.143 42.681 149.124 42.6553C149.108 42.6321 149.092 42.6088 149.075 42.5851C149.06 42.5649 149.046 42.5447 149.031 42.5237C148.999 42.4635 148.999 42.4635 148.995 42.3909C148.993 42.3696 148.991 42.3487 148.989 42.3267C148.957 42.3098 148.926 42.2929 148.893 42.2755C148.897 42.2539 148.901 42.2324 148.905 42.2101C148.883 42.2061 148.86 42.202 148.837 42.1977C148.701 41.9881 148.701 41.9881 148.716 41.9055C148.693 41.9014 148.671 41.8973 148.648 41.8931C148.607 41.8289 148.607 41.8289 148.565 41.7473C148.551 41.7205 148.537 41.6936 148.523 41.666C148.493 41.5947 148.493 41.5947 148.505 41.5293C148.482 41.5253 148.46 41.5212 148.437 41.5169C148.396 41.4432 148.359 41.3699 148.323 41.2935C148.306 41.2587 148.306 41.2587 148.289 41.2232C148.253 41.1481 148.217 41.0731 148.182 40.9978C148.159 40.9486 148.135 40.8994 148.112 40.8498C148.042 40.7027 147.973 40.5552 147.905 40.4071C147.896 40.3864 147.886 40.3658 147.877 40.3444C147.561 39.6532 147.315 38.9271 147.127 38.1954C147.11 38.1281 147.091 38.0613 147.072 37.9946C146.995 37.7257 146.943 37.4584 146.899 37.1833C146.881 37.0754 146.86 36.9686 146.835 36.8615C146.797 36.6929 146.776 36.5237 146.756 36.3528C146.744 36.2617 146.731 36.1711 146.716 36.0802C146.696 35.9541 146.689 35.8304 146.685 35.7031C146.681 35.6256 146.669 35.5513 146.656 35.4747C146.631 35.3242 146.631 35.1787 146.632 35.0271C146.631 34.9273 146.616 34.8329 146.599 34.7343C146.582 34.563 146.582 34.4047 146.595 34.2337C146.601 34.1524 146.601 34.1524 146.589 34.0385C146.557 33.6263 146.623 33.2297 146.697 32.8264ZM149.283 32.917C149.273 33.0077 149.264 33.0984 149.254 33.1891C149.21 33.5955 149.181 33.9941 149.215 34.4033C149.216 34.4961 149.215 34.589 149.214 34.6816C149.212 34.9935 149.227 35.3005 149.278 35.6092C149.301 35.7552 149.319 35.9016 149.337 36.0481C149.358 36.2112 149.387 36.3718 149.42 36.5333C149.429 36.5833 149.439 36.6336 149.449 36.6837C149.503 36.9603 149.564 37.2293 149.651 37.4984C149.679 37.5892 149.7 37.6784 149.718 37.7712C149.784 38.0927 149.914 38.3943 150.04 38.6981C150.096 38.8387 150.146 38.9808 150.194 39.1239C150.24 39.2604 150.24 39.2604 150.296 39.3937C150.318 39.3978 150.341 39.4019 150.364 39.4061C150.364 39.4355 150.364 39.4355 150.365 39.4657C150.374 39.5512 150.399 39.6087 150.438 39.6867C150.451 39.7141 150.465 39.7416 150.479 39.7698C150.494 39.7985 150.509 39.8275 150.523 39.8573C150.539 39.887 150.553 39.9171 150.569 39.9476C150.677 40.1601 150.793 40.3663 150.917 40.5705C150.966 40.6534 151.009 40.7358 151.049 40.8226C151.074 40.8731 151.074 40.8731 151.1 40.9248C151.123 40.9289 151.145 40.933 151.168 40.9372C151.174 40.9578 151.179 40.9783 151.185 40.9993C151.213 41.0823 151.244 41.1542 151.29 41.2294C151.312 41.2335 151.334 41.2376 151.357 41.2418C151.362 41.2615 151.366 41.2809 151.371 41.301C151.41 41.4091 151.47 41.4909 151.537 41.5855C151.557 41.6136 151.557 41.6136 151.578 41.6423C151.606 41.6815 151.634 41.7208 151.663 41.7601C151.706 41.8204 151.749 41.8813 151.793 41.9419C151.82 41.98 151.848 42.0184 151.875 42.0565C151.913 42.1087 151.913 42.1087 151.951 42.1622C152.005 42.2453 152.005 42.2453 152.082 42.2521C152.078 42.2736 152.074 42.2952 152.07 42.3174C152.145 42.4121 152.145 42.4121 152.256 42.4526C152.252 42.4741 152.248 42.4957 152.244 42.5179C152.305 42.5983 152.305 42.5983 152.384 42.6829C152.41 42.7121 152.436 42.7415 152.463 42.7714C152.526 42.846 152.526 42.846 152.602 42.8535C152.598 42.8751 152.594 42.8966 152.59 42.9188C152.632 42.9728 152.632 42.9728 152.692 43.0296C152.714 43.0515 152.736 43.0734 152.759 43.0961C152.782 43.1197 152.806 43.1434 152.831 43.1675C152.855 43.1919 152.88 43.2163 152.905 43.2411C152.954 43.29 153.004 43.3389 153.053 43.3877C153.111 43.4441 153.167 43.5004 153.224 43.5573C153.571 43.9 153.942 44.2174 154.327 44.5194C154.359 44.5449 154.359 44.5449 154.392 44.5709C154.728 44.8341 154.728 44.8341 155.087 45.0653C155.178 45.1205 155.264 45.1815 155.351 45.243C155.574 45.3968 155.808 45.5261 156.047 45.6558C156.127 45.7003 156.206 45.7468 156.285 45.7937C156.446 45.8862 156.614 45.9635 156.783 46.0392C156.937 46.1079 156.937 46.1079 156.968 46.1506C157.036 46.1792 157.104 46.2079 157.172 46.2352C157.266 46.274 157.358 46.3152 157.451 46.3571C157.61 46.4285 157.771 46.491 157.935 46.5495C158.01 46.5777 158.01 46.5777 158.105 46.6289C158.166 46.6468 158.227 46.6634 158.289 46.6793C158.392 46.7064 158.473 46.7303 158.568 46.781C158.619 46.7973 158.672 46.8126 158.724 46.8266C158.754 46.8348 158.785 46.8435 158.816 46.8519C158.864 46.865 158.864 46.865 158.913 46.878C158.976 46.8953 159.038 46.9122 159.101 46.9294C159.129 46.9369 159.157 46.9446 159.185 46.9523C159.267 46.9766 159.267 46.9766 159.343 47.0078C159.429 47.0401 159.509 47.0595 159.6 47.0764C159.633 47.0825 159.666 47.0889 159.7 47.0955C159.736 47.102 159.771 47.1085 159.808 47.1152C159.845 47.122 159.882 47.1291 159.92 47.1361C159.999 47.1508 160.077 47.1651 160.155 47.1795C160.274 47.2013 160.393 47.2236 160.511 47.2461C160.881 47.3144 161.233 47.3725 161.609 47.3719C161.693 47.3792 161.776 47.3909 161.859 47.4029C162.092 47.4323 162.317 47.4374 162.55 47.4346C162.666 47.4338 162.78 47.4365 162.896 47.4408C163.093 47.4463 163.285 47.4288 163.481 47.4076C163.603 47.3986 163.72 47.4037 163.842 47.4096C163.914 47.4046 163.914 47.4046 163.981 47.3928C164.115 47.3732 164.25 47.3594 164.385 47.3474C164.606 47.328 164.821 47.3055 165.037 47.2603C165.136 47.2403 165.236 47.2244 165.336 47.2087C165.607 47.1659 165.871 47.1088 166.136 47.0406C166.262 47.0087 166.388 46.9808 166.516 46.9543C166.52 46.9327 166.524 46.9112 166.528 46.889C166.553 46.8899 166.578 46.8908 166.604 46.8919C166.709 46.8871 166.779 46.8655 166.875 46.8285C167.01 46.7778 167.144 46.7315 167.282 46.6896C167.61 46.588 167.916 46.4697 168.222 46.3172C168.32 46.2724 168.32 46.2724 168.428 46.2583C168.432 46.2368 168.436 46.2152 168.44 46.193C168.464 46.1906 168.487 46.1878 168.511 46.1852C168.66 46.1493 168.798 46.0908 168.928 46.0124C168.932 45.9908 168.936 45.9693 168.94 45.9471C168.96 45.9427 168.98 45.9382 169.001 45.9335C169.107 45.9005 169.198 45.8518 169.295 45.7992C169.333 45.779 169.37 45.7589 169.408 45.7379C169.461 45.7097 169.461 45.7097 169.514 45.6809C169.54 45.6674 169.566 45.654 169.593 45.6404C169.645 45.6135 169.696 45.5844 169.747 45.5549C169.751 45.5333 169.755 45.5118 169.759 45.4896C169.778 45.4857 169.798 45.4819 169.818 45.4782C169.935 45.4395 170.029 45.3757 170.129 45.3087C170.15 45.2947 170.171 45.2809 170.193 45.2667C170.237 45.2373 170.281 45.2079 170.325 45.1785C170.393 45.1332 170.46 45.0885 170.529 45.0436C170.572 45.0151 170.614 44.9868 170.657 44.9582C170.678 44.9447 170.698 44.9312 170.719 44.9175C170.826 44.8542 170.826 44.8542 170.874 44.7489C170.897 44.753 170.919 44.7571 170.942 44.7613C171.043 44.6968 171.134 44.6186 171.227 44.5435C171.257 44.5195 171.287 44.4953 171.317 44.4706C171.484 44.3399 171.484 44.3399 171.61 44.1748C171.632 44.1789 171.654 44.183 171.677 44.1872C171.731 44.1471 171.731 44.1471 171.786 44.0911C171.808 44.0703 171.829 44.0497 171.852 44.0285C171.874 44.0065 171.896 43.9844 171.92 43.9616C171.964 43.9191 172.008 43.8765 172.052 43.834C172.074 43.813 172.096 43.7917 172.118 43.7699C172.204 43.6887 172.293 43.6101 172.382 43.5323C172.449 43.4704 172.508 43.4025 172.566 43.3325C172.64 43.2482 172.722 43.1716 172.802 43.0943C172.876 43.0163 172.94 42.9345 173.004 42.8498C173.054 42.7853 173.105 42.7222 173.157 42.6594C173.4 42.3657 173.627 42.0657 173.841 41.752C173.888 41.6843 173.936 41.6168 173.984 41.5496C174.052 41.4521 174.117 41.3536 174.177 41.2512C174.194 41.2229 174.21 41.1949 174.228 41.166C174.243 41.1395 174.259 41.113 174.275 41.0856C174.301 41.0434 174.327 41.001 174.353 40.9588C174.371 40.93 174.371 40.93 174.389 40.9006C174.413 40.8612 174.438 40.8221 174.463 40.7828C174.538 40.6637 174.602 40.544 174.659 40.4155C174.692 40.3475 174.729 40.283 174.767 40.2181C174.851 40.0716 174.911 39.919 174.973 39.7621C174.994 39.709 175.017 39.6564 175.039 39.6035C175.049 39.5806 175.058 39.5574 175.068 39.5339C175.094 39.4806 175.094 39.4806 175.134 39.4542C175.157 39.3906 175.179 39.3264 175.2 39.2617C175.254 39.0991 175.313 38.9409 175.378 38.7824C175.499 38.4809 175.581 38.1708 175.661 37.8571C175.672 37.8129 175.672 37.8129 175.683 37.7681C175.95 36.7319 176.208 35.5412 176.083 34.4643C176.082 34.4168 176.081 34.3691 176.082 34.3217C176.082 34.2971 176.082 34.2729 176.082 34.2479C176.083 34.1981 176.084 34.1483 176.085 34.0982C176.086 33.9641 176.076 33.8468 176.045 33.7149C176.049 33.6498 176.053 33.5847 176.058 33.5198C176.06 33.3893 176.033 33.2636 176.011 33.135C176.002 33.0704 175.992 33.0062 175.982 32.9417C175.945 32.6947 175.906 32.4495 175.847 32.2064C175.821 32.0971 175.803 31.9896 175.787 31.8788C175.68 31.3355 175.512 30.7993 175.331 30.2747C175.303 30.1919 175.275 30.1096 175.251 30.0258C175.229 30.0217 175.206 30.0176 175.183 30.0134C175.183 29.9941 175.183 29.9748 175.182 29.9548C175.172 29.8648 175.143 29.8006 175.104 29.7184C175.058 29.6229 175.018 29.5292 174.982 29.4299C174.921 29.2621 174.842 29.1031 174.762 28.9427C174.748 28.9123 174.733 28.8816 174.717 28.8501C174.703 28.8212 174.688 28.7921 174.674 28.7622C174.661 28.7358 174.648 28.7095 174.634 28.6823C174.622 28.6633 174.61 28.6438 174.598 28.6237C174.575 28.6196 174.553 28.6155 174.53 28.6113C174.536 28.579 174.542 28.5466 174.548 28.5133C174.526 28.5092 174.503 28.5051 174.48 28.5009C174.458 28.4294 174.436 28.3579 174.415 28.2864C174.392 28.2823 174.37 28.2782 174.347 28.274C174.341 28.2526 174.334 28.2315 174.328 28.2094C174.302 28.1244 174.302 28.1244 174.253 28.0206C174.231 28.0165 174.209 28.0124 174.186 28.0082C174.181 27.9817 174.176 27.9552 174.172 27.9277C174.149 27.8364 174.128 27.786 174.064 27.7159C174.042 27.7119 174.019 27.7078 173.996 27.7035C173.992 27.6845 173.988 27.6655 173.983 27.6458C173.942 27.5327 173.875 27.441 173.804 27.343C173.79 27.3225 173.775 27.3022 173.76 27.2809C173.729 27.2381 173.698 27.1949 173.667 27.1521C173.619 27.0861 173.572 27.02 173.525 26.9537C173.495 26.9117 173.465 26.8701 173.435 26.8281C173.42 26.8083 173.407 26.7886 173.392 26.768C173.325 26.6633 173.325 26.6633 173.216 26.6156C173.22 26.594 173.223 26.5725 173.228 26.5503C173.153 26.4555 173.153 26.4555 173.042 26.4151C173.046 26.3935 173.05 26.372 173.054 26.3498C173.013 26.289 173.013 26.289 172.958 26.2269C172.941 26.2055 172.923 26.1839 172.904 26.1616C172.857 26.1047 172.857 26.1047 172.785 26.098C172.789 26.0765 172.793 26.0549 172.797 26.0327C172.738 25.9678 172.677 25.9063 172.613 25.8451C172.574 25.8076 172.536 25.7699 172.498 25.7325C172.479 25.7135 172.459 25.6947 172.439 25.6752C172.358 25.5945 172.28 25.5113 172.201 25.4282C171.952 25.1297 171.952 25.1297 171.632 24.9419C171.636 24.9203 171.64 24.8987 171.644 24.8765C171.624 24.861 171.604 24.8456 171.583 24.8296C171.433 24.7123 171.285 24.5938 171.141 24.4702C170.957 24.316 170.762 24.1797 170.563 24.0441C170.452 23.9676 170.343 23.891 170.239 23.8042C170.153 23.7345 170.074 23.6807 169.976 23.6281C169.814 23.5387 169.659 23.4417 169.503 23.3423C169.429 23.2957 169.355 23.251 169.279 23.2075C169.202 23.1627 169.127 23.1161 169.053 23.0669C168.954 23.0048 168.859 22.9592 168.752 22.9136C168.68 22.8814 168.612 22.845 168.543 22.8067C168.425 22.7426 168.306 22.6901 168.182 22.6403C168.097 22.6053 168.016 22.5664 167.934 22.5264C167.77 22.4485 167.604 22.3883 167.432 22.3309C167.356 22.3024 167.356 22.3024 167.328 22.2635C167.278 22.2484 167.228 22.2345 167.178 22.2213C167.067 22.1911 166.964 22.1574 166.859 22.1102C166.684 22.0338 166.499 21.9946 166.312 21.951C166.2 21.9221 166.2 21.9221 166.141 21.8944C166.051 21.8562 165.963 21.8408 165.866 21.8227C165.825 21.8151 165.783 21.8075 165.741 21.7994C165.696 21.7915 165.651 21.7833 165.605 21.7749C165.559 21.7664 165.512 21.7579 165.466 21.7493C165.368 21.7315 165.271 21.7137 165.174 21.6959C165.049 21.6734 164.925 21.6503 164.8 21.6275C164.704 21.6096 164.609 21.5924 164.512 21.5747C164.444 21.5623 164.376 21.5498 164.308 21.537C164.246 21.5259 164.246 21.5259 164.182 21.5142C164.145 21.5075 164.109 21.5009 164.071 21.4943C163.977 21.4811 163.891 21.4788 163.796 21.4817C163.741 21.4776 163.685 21.4728 163.629 21.467C163.598 21.4636 163.567 21.4606 163.534 21.4574C163.502 21.4541 163.469 21.4508 163.435 21.4473C162.956 21.3926 162.956 21.3926 162.477 21.4098C162.387 21.4213 162.312 21.4236 162.223 21.4149C162.104 21.3942 162.104 21.3942 162.055 21.4328C161.985 21.4355 161.915 21.4378 161.844 21.4391C161.711 21.443 161.578 21.4494 161.445 21.4561C161.408 21.4578 161.408 21.4578 161.371 21.4597C161.249 21.4658 161.141 21.4786 161.025 21.5142C160.986 21.5175 160.947 21.5209 160.908 21.5244C160.776 21.5337 160.776 21.5337 160.649 21.5634C160.521 21.5907 160.521 21.5907 160.408 21.5996C160.252 21.6146 160.103 21.645 159.95 21.6774C159.88 21.6922 159.809 21.7065 159.738 21.7202C158.996 21.8624 158.225 22.0537 157.547 22.3789C157.465 22.4147 157.465 22.4147 157.346 22.4536C157.18 22.5076 157.025 22.5804 156.868 22.6536C156.808 22.6813 156.747 22.7093 156.686 22.7374C156.643 22.7574 156.643 22.7574 156.598 22.7779C156.466 22.8381 156.332 22.8941 156.197 22.9495C156.177 22.96 156.157 22.9706 156.137 22.9813C156.133 23.0029 156.129 23.0244 156.125 23.0466C156.105 23.0511 156.085 23.0555 156.065 23.06C155.954 23.0946 155.858 23.1446 155.756 23.1984C155.717 23.2184 155.679 23.2381 155.64 23.2586C155.611 23.2765 155.581 23.2944 155.551 23.3128C155.547 23.3343 155.543 23.3559 155.539 23.3781C155.519 23.3819 155.499 23.3857 155.479 23.3897C155.363 23.4281 155.269 23.4919 155.168 23.5593C155.147 23.573 155.126 23.587 155.105 23.6013C155.061 23.6306 155.017 23.6601 154.972 23.6894C154.905 23.7345 154.837 23.7794 154.769 23.824C154.726 23.8526 154.683 23.8811 154.641 23.9098C154.62 23.9232 154.6 23.9364 154.578 23.9504C154.471 24.0137 154.471 24.0137 154.423 24.1187C154.401 24.1147 154.379 24.1106 154.356 24.1063C154.259 24.1777 154.259 24.1777 154.218 24.2837C154.196 24.2796 154.174 24.2755 154.15 24.2713C154.088 24.3101 154.088 24.3101 154.024 24.3622C154.002 24.3791 153.98 24.3963 153.958 24.4141C153.899 24.4588 153.899 24.4588 153.893 24.5279C153.871 24.5238 153.849 24.5197 153.826 24.5155C153.747 24.5839 153.673 24.653 153.599 24.7251C153.553 24.7696 153.506 24.8144 153.46 24.8589C153.436 24.8819 153.413 24.9049 153.388 24.9285C153.322 24.9917 153.256 25.0541 153.189 25.1161C152.796 25.4819 152.402 25.8563 152.084 26.2859C151.995 26.403 151.902 26.5156 151.809 26.6287C151.591 26.8955 151.393 27.1662 151.22 27.4624C151.177 27.5306 151.133 27.59 151.081 27.6517C150.97 27.7893 150.899 27.9457 150.821 28.1029C150.746 28.2555 150.662 28.4031 150.575 28.5492C150.485 28.7009 150.42 28.853 150.36 29.0173C150.326 29.1036 150.287 29.1853 150.245 29.268C150.139 29.4791 150.05 29.697 149.966 29.9173C149.956 29.9447 149.945 29.9722 149.935 30.0002C149.823 30.3014 149.742 30.6096 149.662 30.9203C149.639 31.0106 149.616 31.1008 149.592 31.191C149.443 31.7624 149.344 32.3295 149.283 32.917ZM174.408 52.9623C174.431 52.9932 174.454 53.0238 174.478 53.0552C174.604 53.2224 174.604 53.2224 174.628 53.3C174.65 53.3041 174.673 53.3082 174.696 53.3124C174.692 53.3339 174.688 53.3555 174.684 53.3777C174.719 53.4405 174.719 53.4405 174.768 53.4943C174.79 53.4984 174.812 53.5025 174.835 53.5067C174.831 53.5282 174.827 53.5498 174.823 53.572C174.858 53.6348 174.858 53.6348 174.907 53.6885C174.929 53.6926 174.952 53.6967 174.975 53.701C174.971 53.7225 174.967 53.7441 174.963 53.7663C175.004 53.8248 175.004 53.8248 175.061 53.8882C175.196 54.048 175.317 54.2149 175.438 54.3849C175.462 54.418 175.486 54.4514 175.511 54.4856C175.562 54.5582 175.614 54.6307 175.666 54.703C175.75 54.8213 175.834 54.939 175.919 55.0571C176.025 55.2062 176.132 55.3553 176.238 55.5044C176.447 55.7971 176.656 56.0899 176.866 56.3825C176.899 56.4286 176.932 56.4745 176.965 56.5207C177.015 56.5906 177.065 56.6605 177.115 56.7304C177.303 56.993 177.491 57.256 177.679 57.5189C177.696 57.5429 177.713 57.567 177.731 57.5919C178.01 57.9818 178.289 58.372 178.567 58.7623C178.853 59.1633 179.14 59.5641 179.427 59.9642C179.604 60.2113 179.78 60.4582 179.957 60.7058C180.077 60.8751 180.198 61.0441 180.319 61.213C180.389 61.3102 180.459 61.4081 180.529 61.5058C180.604 61.6117 180.68 61.7171 180.755 61.8224C180.778 61.8538 180.8 61.8852 180.822 61.9173C180.843 61.9454 180.863 61.9734 180.884 62.0022C180.901 62.0267 180.919 62.0508 180.937 62.076C180.988 62.1339 180.988 62.1339 181.065 62.1322C181.142 62.1167 181.187 62.0924 181.25 62.0481C181.272 62.0334 181.293 62.0188 181.316 62.0036C181.338 61.9878 181.36 61.972 181.383 61.956C181.43 61.924 181.477 61.8924 181.523 61.8604C181.545 61.8456 181.567 61.8304 181.59 61.815C181.66 61.769 181.73 61.7279 181.804 61.6891C181.916 61.6297 182.009 61.5566 182.107 61.4776C182.17 61.4304 182.233 61.3934 182.302 61.3562C182.433 61.2872 182.543 61.2027 182.657 61.112C182.722 61.0636 182.787 61.0255 182.86 60.9881C182.893 60.9706 182.926 60.9526 182.96 60.9345C182.964 60.913 182.968 60.8914 182.972 60.8692C182.994 60.8733 183.016 60.8774 183.039 60.8816C183.049 60.8277 183.059 60.7739 183.069 60.7184C183.047 60.7143 183.025 60.7102 183.001 60.706C183.005 60.6844 183.009 60.6628 183.013 60.6406C182.991 60.6366 182.969 60.6325 182.946 60.6282C182.94 60.5939 182.935 60.5595 182.93 60.5241C182.907 60.52 182.885 60.5159 182.862 60.5117C182.866 60.4901 182.87 60.4686 182.874 60.4464C182.839 60.3838 182.839 60.3838 182.79 60.3298C182.768 60.3257 182.746 60.3216 182.723 60.3174C182.727 60.2958 182.731 60.2743 182.735 60.2521C182.699 60.1896 182.699 60.1896 182.651 60.1355C182.629 60.1314 182.606 60.1273 182.583 60.1231C182.578 60.0887 182.573 60.0544 182.567 60.0189C182.545 60.0149 182.523 60.0108 182.5 60.0065C182.504 59.985 182.507 59.9634 182.512 59.9412C182.476 59.8787 182.476 59.8787 182.428 59.8247C182.406 59.8206 182.383 59.8165 182.36 59.8123C182.364 59.7907 182.368 59.7692 182.372 59.747C182.337 59.6844 182.337 59.6844 182.288 59.6304C182.266 59.6263 182.244 59.6222 182.221 59.618C182.225 59.5964 182.229 59.5749 182.233 59.5527C182.195 59.5005 182.195 59.5005 182.143 59.4458C182.05 59.339 181.976 59.2303 181.907 59.1089C181.869 59.0464 181.833 58.9877 181.787 58.931C181.764 58.9269 181.742 58.9228 181.719 58.9186C181.723 58.897 181.727 58.8755 181.731 58.8533C181.695 58.7908 181.695 58.7908 181.647 58.7367C181.625 58.7326 181.602 58.7285 181.579 58.7243C181.583 58.7027 181.587 58.6812 181.591 58.659C181.556 58.5965 181.556 58.5965 181.508 58.5424C181.485 58.5383 181.463 58.5342 181.44 58.53C181.435 58.4956 181.43 58.4613 181.424 58.4259C181.402 58.4218 181.379 58.4177 181.356 58.4134C181.36 58.3919 181.364 58.3703 181.368 58.3481C181.346 58.344 181.324 58.34 181.301 58.3357C181.295 58.3014 181.29 58.267 181.285 58.2316C181.262 58.2275 181.24 58.2234 181.217 58.2192C181.221 58.1976 181.225 58.1761 181.229 58.1539C181.207 58.1498 181.184 58.1457 181.161 58.1415C181.156 58.1071 181.151 58.0727 181.145 58.0373C181.123 58.0332 181.101 58.0291 181.078 58.0249C181.07 57.9911 181.07 57.9911 181.062 57.9565C181.039 57.8718 181.039 57.8718 180.938 57.8306C180.93 57.8014 180.93 57.8014 180.921 57.7711C180.882 57.6475 180.804 57.5498 180.728 57.4448C180.711 57.4215 180.695 57.3986 180.678 57.3749C180.643 57.3263 180.608 57.2777 180.573 57.2295C180.519 57.1549 180.466 57.0803 180.413 57.0054C180.379 56.9584 180.345 56.9113 180.311 56.8643C180.295 56.8418 180.279 56.8193 180.263 56.7964C180.191 56.681 180.191 56.681 180.074 56.6261C180.066 56.5922 180.066 56.5922 180.058 56.5577C180.036 56.473 180.036 56.473 179.934 56.4318C179.92 56.3842 179.905 56.3366 179.891 56.2888C179.859 56.2719 179.827 56.2549 179.795 56.2375C179.79 56.2031 179.784 56.1688 179.779 56.1333C179.757 56.1293 179.734 56.1252 179.711 56.1209C179.715 56.0994 179.719 56.0778 179.723 56.0556C179.701 56.0515 179.679 56.0474 179.656 56.0432C179.65 56.0089 179.645 55.9745 179.64 55.9391C179.617 55.935 179.595 55.9309 179.572 55.9267C179.576 55.9051 179.58 55.8836 179.584 55.8614C179.562 55.8573 179.539 55.8532 179.516 55.8489C179.511 55.8146 179.506 55.7802 179.5 55.7448C179.478 55.7407 179.456 55.7366 179.433 55.7324C179.436 55.7108 179.44 55.6893 179.444 55.6671C179.409 55.6046 179.409 55.6046 179.361 55.5505C179.338 55.5464 179.316 55.5423 179.293 55.5381C179.297 55.5166 179.301 55.495 179.305 55.4728C179.27 55.4103 179.27 55.4103 179.221 55.3562C179.199 55.3521 179.177 55.348 179.154 55.3438C179.158 55.3223 179.162 55.3007 179.166 55.2785C179.13 55.216 179.13 55.216 179.082 55.1619C179.06 55.1579 179.037 55.1538 179.014 55.1495C179.018 55.128 179.022 55.1064 179.026 55.0842C178.978 55.0299 178.93 54.9761 178.881 54.9226C178.874 54.899 178.866 54.8754 178.859 54.8511C178.837 54.847 178.814 54.8429 178.791 54.8387C178.795 54.8171 178.799 54.7956 178.803 54.7734C178.768 54.7109 178.768 54.7109 178.72 54.6568C178.697 54.6527 178.675 54.6486 178.652 54.6444C178.656 54.6229 178.66 54.6013 178.664 54.5791C178.628 54.5166 178.628 54.5166 178.58 54.4625C178.558 54.4584 178.535 54.4544 178.512 54.4501C178.516 54.4286 178.52 54.407 178.524 54.3848C178.484 54.3302 178.484 54.3302 178.431 54.2729C178.344 54.1732 178.282 54.0727 178.218 53.9574C178.195 53.9533 178.173 53.9492 178.15 53.945C178.154 53.9235 178.158 53.9019 178.162 53.8797C178.126 53.8172 178.126 53.8172 178.078 53.7631C178.056 53.759 178.034 53.7549 178.011 53.7507C178.014 53.7292 178.018 53.7076 178.022 53.6854C177.987 53.6229 177.987 53.6229 177.939 53.5688C177.916 53.5648 177.894 53.5607 177.871 53.5564C177.866 53.5221 177.861 53.4877 177.855 53.4523C177.833 53.4482 177.81 53.4441 177.787 53.4399C177.791 53.4183 177.795 53.3968 177.799 53.3746C177.777 53.3705 177.755 53.3664 177.732 53.3622C177.726 53.3278 177.721 53.2934 177.716 53.258C177.693 53.2539 177.671 53.2498 177.648 53.2456C177.652 53.224 177.656 53.2025 177.66 53.1803C177.638 53.1762 177.615 53.1721 177.592 53.1679C177.587 53.1335 177.582 53.0991 177.576 53.0637C177.554 53.0596 177.532 53.0555 177.509 53.0513C177.501 53.0175 177.501 53.0175 177.493 52.9829C177.471 52.8982 177.471 52.8982 177.369 52.857C177.354 52.8095 177.34 52.7619 177.325 52.714C177.294 52.6971 177.262 52.6802 177.23 52.6628C177.214 52.6156 177.199 52.5677 177.186 52.5197C177.146 52.4528 177.146 52.4528 177.099 52.3873C177.081 52.3632 177.064 52.3392 177.047 52.3143C177.02 52.2773 177.02 52.2773 176.992 52.2396C176.975 52.2144 176.956 52.1891 176.938 52.1632C176.912 52.1274 176.912 52.1274 176.886 52.0909C176.87 52.0691 176.855 52.0473 176.838 52.0248C176.799 51.9693 176.799 51.9693 176.728 51.9633C176.732 51.9418 176.736 51.9202 176.74 51.898C176.704 51.8355 176.704 51.8355 176.656 51.7815C176.634 51.7774 176.612 51.7733 176.588 51.7691C176.592 51.7475 176.596 51.726 176.6 51.7038C176.525 51.5962 176.525 51.5962 176.427 51.5033C176.301 51.4882 176.233 51.5376 176.135 51.608C176.035 51.6774 175.936 51.7417 175.828 51.7986C175.7 51.868 175.591 51.9528 175.477 52.0424C175.383 52.1123 175.279 52.1631 175.176 52.2191C175.102 52.2727 175.03 52.3287 174.958 52.3851C174.847 52.4711 174.729 52.5462 174.609 52.6209C174.58 52.6395 174.551 52.6581 174.521 52.6773C174.494 52.6945 174.466 52.7117 174.438 52.7298C174.337 52.8093 174.341 52.8563 174.408 52.9623Z" fill="#4299E1"/>
<path d="M151.895 32.6993C151.901 32.6599 151.908 32.6206 151.914 32.5799C151.97 32.2624 152.08 32.0289 152.318 31.802C152.338 31.7818 152.359 31.7617 152.381 31.741C152.438 31.6905 152.493 31.6465 152.561 31.6083C152.583 31.6124 152.606 31.6165 152.629 31.6207C152.633 31.5991 152.637 31.5776 152.641 31.5554C153.035 31.418 153.386 31.3993 153.778 31.5677C153.918 31.6425 154.042 31.7364 154.165 31.8345C154.161 31.856 154.157 31.8776 154.153 31.8998C154.186 31.9059 154.22 31.9121 154.254 31.9184C154.307 31.9865 154.307 31.9865 154.36 32.0793C154.378 32.1088 154.396 32.138 154.414 32.1687C154.571 32.5069 154.564 32.8348 154.496 33.1885C154.428 33.5934 154.41 33.9836 154.416 34.3941C154.415 34.5014 154.407 34.6069 154.399 34.7134C154.391 34.862 154.413 35.0095 154.431 35.157C154.434 35.1818 154.437 35.2067 154.44 35.2319C154.47 35.4462 154.517 35.6574 154.564 35.8688C154.58 35.9427 154.596 36.0168 154.611 36.091C154.685 36.4616 154.806 36.818 154.941 37.1721C154.951 37.1975 154.961 37.2225 154.97 37.2487C155.019 37.3722 155.07 37.4913 155.13 37.6097C155.186 37.7251 155.186 37.7251 155.174 37.7904C155.196 37.7945 155.218 37.7986 155.241 37.8028C155.267 37.8632 155.29 37.9238 155.313 37.9847C155.832 38.9586 156.576 39.9733 157.505 40.6221C157.672 40.7386 157.672 40.7386 157.733 40.8241C157.777 40.8535 157.823 40.8814 157.868 40.908C157.997 40.9846 158.118 41.0664 158.239 41.1531C158.427 41.2829 158.617 41.3765 158.826 41.4677C158.93 41.5141 159.027 41.5658 159.127 41.6195C159.681 41.8907 160.252 42.0627 160.857 42.1853C161.38 42.2946 161.795 42.4273 162.101 42.8787C162.287 43.1844 162.339 43.4962 162.264 43.8433C162.174 44.1289 162.016 44.3824 161.772 44.5676C161.75 44.5635 161.727 44.5594 161.704 44.5552C161.7 44.5767 161.697 44.5983 161.692 44.6205C161.623 44.6564 161.623 44.6564 161.533 44.6925C161.503 44.7047 161.474 44.7165 161.444 44.7288C161.074 44.8566 160.693 44.7854 160.32 44.6962C160.263 44.683 160.263 44.683 160.204 44.6692C160.129 44.6517 160.053 44.6338 159.978 44.616C159.896 44.5961 159.813 44.577 159.731 44.5585C158.88 44.3591 157.98 44.0034 157.247 43.535C157.168 43.4855 157.088 43.4403 157.006 43.3953C156.491 43.1025 156.012 42.7316 155.563 42.3505C155.528 42.3221 155.492 42.2939 155.456 42.2654C155.148 42.0135 154.874 41.724 154.598 41.439C154.556 41.3948 154.512 41.351 154.469 41.3076C154.416 41.2541 154.365 41.1988 154.315 41.143C154.319 41.1215 154.322 41.0999 154.327 41.0777C154.31 41.0672 154.293 41.0564 154.276 41.0455C154.178 40.9678 154.107 40.8846 154.03 40.7871C154.034 40.7656 154.038 40.744 154.042 40.7218C154.019 40.7177 153.997 40.7136 153.974 40.7094C153.978 40.6879 153.982 40.6663 153.986 40.6441C153.968 40.6323 153.95 40.6202 153.931 40.6081C153.855 40.5482 153.808 40.488 153.752 40.41C153.732 40.382 153.712 40.3536 153.691 40.3245C153.67 40.2947 153.649 40.2652 153.628 40.235C153.607 40.2058 153.586 40.1771 153.565 40.1472C153.221 39.6632 153.221 39.6632 153.239 39.5623C153.217 39.5582 153.194 39.5541 153.171 39.5499C153.136 39.4943 153.136 39.4943 153.1 39.419C153.086 39.3915 153.072 39.3643 153.058 39.3365C153.044 39.3083 153.03 39.2804 153.016 39.2515C152.99 39.2011 152.964 39.1511 152.938 39.1011C152.911 39.0507 152.885 39.0007 152.859 38.9507C152.846 38.9257 152.833 38.9007 152.819 38.8749C152.586 38.4276 152.586 38.4276 152.51 38.2111C152.481 38.1319 152.449 38.0537 152.416 37.9753C152.342 37.7868 152.282 37.5953 152.225 37.4019C152.202 37.3259 152.179 37.2501 152.154 37.1747C151.866 36.2886 151.761 35.3544 151.764 34.4322C151.763 34.399 151.762 34.3658 151.762 34.3313C151.757 34.1253 151.773 33.9256 151.798 33.7213C151.81 33.6276 151.81 33.6276 151.79 33.5258C151.801 33.2476 151.848 32.9731 151.895 32.6993Z" fill="#4299E1"/>
</g>
<defs>
<clipPath id="clip0_363_397">
<rect width="285" height="75.6545" fill="white"/>
</clipPath>
<clipPath id="clip1_363_397">
<rect width="42.4923" height="44.0658" fill="white" transform="translate(142 58.124) rotate(-79.6212)"/>
</clipPath>
</defs>
</svg>
